<?xml version="1.0" encoding="utf-8"?>
<!-- Generator: Adobe Illustrator 27.8.0, SVG Export Plug-In . SVG Version: 6.00 Build 0)  -->
<svg version="1.1" id="Layer_1" xmlns="http://www.w3.org/2000/svg" xmlns:xlink="http://www.w3.org/1999/xlink" x="0px" y="0px"
	 viewBox="0 0 16 4" style="enable-background:new 0 0 16 4;" xml:space="preserve">
<g>
	<path d="M0.7388,0.3599H1.189l0.02,0.5698l-0.0498-0.085C1.2256,0.668,1.3306,0.5332,1.4741,0.4399
		C1.6172,0.3467,1.7925,0.2998,1.999,0.2998c0.2432,0,0.4502,0.0625,0.6201,0.1875s0.2954,0.2915,0.3774,0.5
		c0.0815,0.2085,0.1226,0.4409,0.1226,0.6973c0,0.2568-0.041,0.4893-0.1226,0.6978c-0.082,0.2085-0.2075,0.375-0.3774,0.5
		S2.2422,3.0698,1.999,3.0698c-0.1367,0-0.2603-0.021-0.3701-0.0625s-0.2051-0.104-0.2847-0.1875
		C1.2642,2.7363,1.2041,2.6333,1.1641,2.5098l0.0601-0.0698v1.3198H0.7388V0.3599z M1.2515,2.1475
		c0.0518,0.1416,0.1309,0.2559,0.2373,0.3423c0.1069,0.0869,0.2383,0.1299,0.395,0.1299c0.2368,0,0.415-0.0898,0.5352-0.27
		c0.1201-0.1797,0.1802-0.4014,0.1802-0.665c0-0.2666-0.0601-0.4888-0.1802-0.6675C2.2988,0.8389,2.1206,0.75,1.8838,0.75
		c-0.1567,0-0.2881,0.043-0.395,0.1299C1.3823,0.9663,1.3032,1.0806,1.2515,1.2222S1.1738,1.5181,1.1738,1.6846
		C1.1738,1.8516,1.1997,2.0059,1.2515,2.1475z"/>
	<path d="M4.0913,0.5322C4.293,0.3774,4.5342,0.2998,4.814,0.2998c0.3301,0,0.5908,0.0947,0.7827,0.2852
		c0.1914,0.1899,0.2871,0.4648,0.2871,0.8247v1.0049c0,0.0571,0.0137,0.0986,0.04,0.125c0.0269,0.0269,0.0669,0.04,0.1201,0.04
		h0.1099v0.4302H6.019c-0.1533,0-0.2783-0.0366-0.375-0.1099S5.4858,2.728,5.459,2.605C5.4023,2.7349,5.3008,2.8447,5.1538,2.9346
		c-0.1465,0.0903-0.3198,0.1353-0.52,0.1353c-0.1797,0-0.3433-0.0303-0.4897-0.0898c-0.147-0.0601-0.2627-0.1484-0.3477-0.2651
		s-0.1274-0.25-0.1274-0.3999c0-0.1733,0.041-0.3145,0.1226-0.4229c0.0815-0.1079,0.1934-0.1914,0.335-0.25
		C4.2681,1.584,4.4541,1.5347,4.6841,1.4946L5.3989,1.355C5.3955,1.1548,5.3413,1.0049,5.2363,0.9048S4.9888,0.7549,4.8091,0.7549
		c-0.1499,0-0.2769,0.04-0.3799,0.1201C4.3257,0.9546,4.2588,1.0581,4.229,1.1846l-0.5151-0.04
		C3.7642,0.8916,3.8896,0.6875,4.0913,0.5322z M4.314,2.5498c0.0869,0.0635,0.2148,0.0947,0.3853,0.0947
		c0.1333,0,0.2529-0.0298,0.3599-0.0898C5.1655,2.4946,5.25,2.4082,5.3115,2.2949s0.0942-0.25,0.0977-0.4102V1.7749L4.8389,1.875
		L4.7388,1.8848C4.6055,1.9146,4.5015,1.9404,4.4263,1.9624C4.3516,1.9839,4.2915,2.0215,4.2466,2.0747S4.1792,2.2031,4.1792,2.2998
		C4.1821,2.4033,4.2271,2.4863,4.314,2.5498z"/>
	<path d="M7.189,2.707C7.019,2.5991,6.8872,2.4492,6.7939,2.2573S6.6538,1.8467,6.6538,1.5996c0-0.2563,0.0469-0.4829,0.1401-0.6797
		S7.019,0.5708,7.189,0.4624S7.5522,0.2998,7.769,0.2998c0.1733,0,0.3325,0.0435,0.4775,0.1299
		c0.145,0.0869,0.249,0.2002,0.3125,0.3398V0.3599h0.4648v2.355C9.0205,3.0747,8.9146,3.3491,8.7065,3.5371
		C8.498,3.7256,8.2124,3.8198,7.8491,3.8198c-0.1934,0-0.3677-0.0308-0.5225-0.0928C7.1714,3.6655,7.043,3.5757,6.9414,3.457
		C6.8398,3.3389,6.7671,3.2046,6.7241,3.0547l0.5098-0.0352c0.0532,0.1167,0.1318,0.2075,0.2354,0.2729
		c0.103,0.0649,0.23,0.0972,0.3799,0.0972c0.2197,0,0.3892-0.0493,0.5073-0.1475s0.1777-0.2393,0.1777-0.4224V2.4297
		c-0.0635,0.1299-0.167,0.2358-0.3101,0.3174C8.0806,2.8291,7.9292,2.8696,7.769,2.8696C7.5522,2.8696,7.3589,2.8154,7.189,2.707z
		 M7.2441,2.0371c0.0566,0.1284,0.1372,0.2285,0.2422,0.3003s0.2295,0.1074,0.3726,0.1074c0.1401,0,0.2617-0.0366,0.3652-0.1099
		c0.103-0.0732,0.1831-0.1733,0.2397-0.3003c0.0566-0.1265,0.085-0.2729,0.085-0.4399c0.0034-0.1631-0.0225-0.3091-0.0771-0.4375
		c-0.0552-0.1284-0.1343-0.228-0.2378-0.2998C8.1309,0.7856,8.0059,0.75,7.8589,0.75c-0.1431,0-0.2676,0.0356-0.3726,0.1074
		S7.3008,1.0288,7.2441,1.1572s-0.085,0.2744-0.085,0.4375C7.1592,1.7617,7.1875,1.9092,7.2441,2.0371z"/>
	<path d="M9.8164,0.9521c0.1016-0.208,0.2461-0.3691,0.4326-0.4824s0.4019-0.1699,0.645-0.1699c0.21,0,0.4009,0.0469,0.5723,0.1401
		c0.1719,0.0933,0.312,0.2407,0.4204,0.4424c0.1079,0.2017,0.1689,0.4541,0.1821,0.7573l0.0054,0.1851h-1.8901
		c0.02,0.2534,0.0918,0.4482,0.2148,0.585c0.1235,0.1367,0.2886,0.2051,0.4951,0.2051c0.1367,0,0.2593-0.0366,0.3677-0.1099
		c0.1079-0.0732,0.1924-0.1733,0.2524-0.3003l0.52,0.04c-0.0767,0.2534-0.2192,0.4546-0.4277,0.6025
		c-0.2085,0.1484-0.4458,0.2227-0.7124,0.2227c-0.2432,0-0.4585-0.0566-0.645-0.1699S9.918,2.6255,9.8164,2.4175
		C9.7148,2.209,9.6641,1.9648,9.6641,1.6846C9.6641,1.4048,9.7148,1.1606,9.8164,0.9521z M11.314,0.9175
		c-0.1167-0.1084-0.2568-0.1626-0.4199-0.1626c-0.1934,0-0.3491,0.0581-0.4678,0.1748c-0.1182,0.1167-0.1973,0.2852-0.2373,0.5049
		h1.3501C11.5059,1.1982,11.4307,1.0254,11.314,0.9175z"/>
	<path d="M13.7241,0.3599v0.4297h-0.9453V0.3599H13.7241z M14.7939,2.5796v0.4302h-2.0151V2.5796H14.7939z M13.814,0.3599
		l0.0498,0.6899l-0.0449-0.04c0.0303-0.2231,0.1011-0.3877,0.2129-0.4927c0.1113-0.105,0.269-0.1572,0.4722-0.1572h0.5449v0.4297
		h-0.5249c-0.1333,0-0.2432,0.0244-0.3301,0.0728c-0.0864,0.0483-0.1489,0.1201-0.1875,0.2148
		c-0.0381,0.0952-0.0571,0.2178-0.0571,0.3677v1.5649h-0.4854V0.3599H13.814z"/>
</g>
</svg>
